<?xml version="1.0" encoding="UTF-8"?>
<svg version="1.1" xmlns="http://www.w3.org/2000/svg" width="744" height="554">
<path d="M0 0 C245.52 0 491.04 0 744 0 C744 182.82 744 365.64 744 554 C498.48 554 252.96 554 0 554 C0 371.18 0 188.36 0 0 Z " fill="#BEBEBF" transform="translate(0,0)"/>
<path d="M0 0 C2.00390625 1.16796875 2.00390625 1.16796875 3.00390625 4.16796875 C3.66390625 4.16796875 4.32390625 4.16796875 5.00390625 4.16796875 C5.00390625 1.85796875 5.00390625 -0.45203125 5.00390625 -2.83203125 C5.99390625 -2.83203125 6.98390625 -2.83203125 8.00390625 -2.83203125 C8.15319388 2.55725215 8.26156025 7.94530978 8.33349609 13.33618164 C8.36350881 15.16647327 8.40433353 16.99662302 8.45654297 18.82641602 C8.96589391 37.14806895 8.96589391 37.14806895 3.69384766 43.70922852 C-0.37811443 47.22410477 -3.68705471 47.41733255 -8.99609375 47.35546875 C-10.82140625 47.34580078 -10.82140625 47.34580078 -12.68359375 47.3359375 C-15.32672519 47.20191079 -17.48954898 46.95126399 -19.99609375 46.16796875 C-19.99609375 45.50796875 -19.99609375 44.84796875 -19.99609375 44.16796875 C-21.31609375 43.83796875 -22.63609375 43.50796875 -23.99609375 43.16796875 C-24.32609375 41.84796875 -24.65609375 40.52796875 -24.99609375 39.16796875 C-24.00609375 39.16796875 -23.01609375 39.16796875 -21.99609375 39.16796875 C-21.99609375 39.82796875 -21.99609375 40.48796875 -21.99609375 41.16796875 C-15.14958933 43.54936159 -8.51895024 44.38495554 -1.55859375 41.98046875 C1.48552073 39.82731461 2.66418834 38.66612108 4.00390625 35.16796875 C4.235111 31.81806889 4.17961349 28.5194216 4.00390625 25.16796875 C3.74609375 25.791875 3.48828125 26.41578125 3.22265625 27.05859375 C1.56423719 29.92893443 -0.5774933 30.61399551 -3.64453125 31.62890625 C-9.30090777 32.9255507 -14.24944471 32.89072007 -19.62109375 30.66796875 C-20.40484375 30.17296875 -21.18859375 29.67796875 -21.99609375 29.16796875 C-21.99609375 28.50796875 -21.99609375 27.84796875 -21.99609375 27.16796875 C-22.65609375 27.16796875 -23.31609375 27.16796875 -23.99609375 27.16796875 C-28.42925324 21.07237445 -29.02101138 15.61156245 -27.99609375 8.16796875 C-25.83671737 3.68926219 -23.06656436 0.98598687 -18.99609375 -1.83203125 C-11.98765983 -4.16817589 -6.63169112 -2.64255173 0 0 Z " fill="#BEBAC2" transform="translate(535.99609375,268.83203125)"/>
<path d="M0 0 C0.928125 0.598125 1.85625 1.19625 2.8125 1.8125 C3.905625 2.51375 4.99875 3.215 6.125 3.9375 C8.98663335 6.99878219 9.17889819 7.56822231 9.48046875 11.4921875 C9.54903076 12.30155762 9.61759277 13.11092773 9.68823242 13.94482422 C9.72924072 14.56115723 9.77024902 15.17749023 9.8125 15.8125 C5.3549293 16.81592042 0.89632262 17.81465865 -3.5625 18.8125 C-4.83351563 19.09867187 -6.10453125 19.38484375 -7.4140625 19.6796875 C-8.62578125 19.95039063 -9.8375 20.22109375 -11.0859375 20.5 C-12.20661621 20.75136719 -13.32729492 21.00273437 -14.48193359 21.26171875 C-17.1875 21.8125 -17.1875 21.8125 -19.1875 21.8125 C-17.93773244 25.46566671 -17.51651247 26.59315836 -14.1875 28.8125 C-14.1875 29.4725 -14.1875 30.1325 -14.1875 30.8125 C-11.95894426 30.8939222 -9.72952345 30.95188079 -7.5 31 C-6.25863281 31.03480469 -5.01726562 31.06960938 -3.73828125 31.10546875 C0.03095091 30.794476 1.74649351 29.91727202 4.8125 27.8125 C5.4725 27.8125 6.1325 27.8125 6.8125 27.8125 C6.6875 29.625 6.6875 29.625 5.8125 31.8125 C0.64282745 35.6217324 -5.03453468 35.48289771 -11.1875 34.8125 C-16.64251711 32.89314213 -20.57330173 29.57969703 -23.5 24.5625 C-24.99653652 18.57635392 -24.86018974 12.39722855 -22.41796875 6.67578125 C-17.15455665 -1.29452851 -8.55765172 -3.18814476 0 0 Z " fill="#3A2862" transform="translate(422.1875,267.1875)"/>
<path d="M0 0 C2.03609149 2.81389878 1.6554549 5.25031327 1.61206055 8.6784668 C1.6078157 9.3401033 1.60357086 10.00173981 1.59919739 10.6834259 C1.58242873 12.79286715 1.54478279 14.90134651 1.5065918 17.01049805 C1.49154248 18.44212485 1.4778545 19.87376667 1.46557617 21.30541992 C1.43253209 24.81159092 1.38076347 28.31720058 1.3190918 31.82299805 C0.3290918 31.82299805 -0.6609082 31.82299805 -1.6809082 31.82299805 C-2.0109082 30.50299805 -2.3409082 29.18299805 -2.6809082 27.82299805 C-3.40793945 28.3644043 -3.40793945 28.3644043 -4.1496582 28.91674805 C-9.29868463 32.48145865 -12.42534634 33.63016732 -18.6809082 32.82299805 C-22.75611676 31.2851835 -25.73988977 29.81286926 -27.6809082 25.82299805 C-27.91583649 23.10305056 -27.81792971 20.56342828 -27.6809082 17.82299805 C-27.0209082 17.82299805 -26.3609082 17.82299805 -25.6809082 17.82299805 C-25.4334082 17.20424805 -25.1859082 16.58549805 -24.9309082 15.94799805 C-23.35583126 13.27036724 -22.61333581 12.86233948 -19.6809082 11.82299805 C-16.75941911 11.5843726 -13.85955266 11.63485978 -10.9309082 11.69799805 C-9.74174805 11.7115332 -9.74174805 11.7115332 -8.52856445 11.7253418 C-6.57921539 11.74882793 -4.63002246 11.78469668 -2.6809082 11.82299805 C-2.69390721 8.72273435 -2.87696602 5.82580195 -3.6809082 2.82299805 C-7.403648 -0.1733535 -11.0812679 -0.63650269 -15.72387695 -0.4855957 C-18.68099899 -0.01930301 -21.06377261 1.42313482 -23.6809082 2.82299805 C-24.6709082 2.49299805 -25.6609082 2.16299805 -26.6809082 1.82299805 C-26.6809082 1.16299805 -26.6809082 0.50299805 -26.6809082 -0.17700195 C-17.44717848 -5.00372431 -8.91768933 -6.24432538 0 0 Z " fill="#0B0813" transform="translate(242.680908203125,270.177001953125)"/>
<path d="M0 0 C2.00390625 1.16796875 2.00390625 1.16796875 3.00390625 4.16796875 C3.66390625 4.16796875 4.32390625 4.16796875 5.00390625 4.16796875 C5.00390625 1.85796875 5.00390625 -0.45203125 5.00390625 -2.83203125 C5.99390625 -2.83203125 6.98390625 -2.83203125 8.00390625 -2.83203125 C8.15319388 2.55725215 8.26156025 7.94530978 8.33349609 13.33618164 C8.36350881 15.16647327 8.40433353 16.99662302 8.45654297 18.82641602 C8.96589391 37.14806895 8.96589391 37.14806895 3.69384766 43.70922852 C-0.37811443 47.22410477 -3.68705471 47.41733255 -8.99609375 47.35546875 C-10.82140625 47.34580078 -10.82140625 47.34580078 -12.68359375 47.3359375 C-15.32672519 47.20191079 -17.48954898 46.95126399 -19.99609375 46.16796875 C-19.99609375 45.50796875 -19.99609375 44.84796875 -19.99609375 44.16796875 C-21.31609375 43.83796875 -22.63609375 43.50796875 -23.99609375 43.16796875 C-24.32609375 41.84796875 -24.65609375 40.52796875 -24.99609375 39.16796875 C-24.00609375 39.16796875 -23.01609375 39.16796875 -21.99609375 39.16796875 C-21.99609375 39.82796875 -21.99609375 40.48796875 -21.99609375 41.16796875 C-15.14958933 43.54936159 -8.51895024 44.38495554 -1.55859375 41.98046875 C1.48552073 39.82731461 2.66418834 38.66612108 4.00390625 35.16796875 C4.235111 31.81806889 4.17961349 28.5194216 4.00390625 25.16796875 C3.74609375 25.791875 3.48828125 26.41578125 3.22265625 27.05859375 C1.56423719 29.92893443 -0.5774933 30.61399551 -3.64453125 31.62890625 C-9.30090777 32.9255507 -14.24944471 32.89072007 -19.62109375 30.66796875 C-20.40484375 30.17296875 -21.18859375 29.67796875 -21.99609375 29.16796875 C-21.99609375 28.50796875 -21.99609375 27.84796875 -21.99609375 27.16796875 C-22.65609375 27.16796875 -23.31609375 27.16796875 -23.99609375 27.16796875 C-28.42925324 21.07237445 -29.02101138 15.61156245 -27.99609375 8.16796875 C-25.83671737 3.68926219 -23.06656436 0.98598687 -18.99609375 -1.83203125 C-11.98765983 -4.16817589 -6.63169112 -2.64255173 0 0 Z M-21.99609375 5.16796875 C-25.25505886 10.05641641 -24.68335478 15.45949451 -23.99609375 21.16796875 C-22.42055611 24.69665222 -20.02451417 26.49214961 -16.80859375 28.60546875 C-11.36331905 29.69452369 -6.00018972 29.12826474 -0.99609375 26.73046875 C2.06069509 24.34235247 3.32418573 22.96760644 4.00390625 19.16796875 C4.48452776 13.48369509 4.76284184 8.79435101 1.00390625 4.16796875 C-2.28215982 0.88190268 -5.22137631 0.25687075 -9.80859375 -0.26953125 C-14.68773912 -0.15843117 -18.31121842 2.09723931 -21.99609375 5.16796875 Z " fill="#58339F" transform="translate(535.99609375,268.83203125)"/>
<path d="M0 0 C3.79151583 -0.08829061 7.58276165 -0.14081946 11.375 -0.1875 C12.96634766 -0.22520508 12.96634766 -0.22520508 14.58984375 -0.26367188 C22.65012256 -0.33784622 29.8869145 0.49638274 36.875 4.75 C42.13358162 10.31790995 44.59716355 16.72993367 45.3125 24.3125 C44.86065872 29.64422706 44.17671995 35.43305574 40.60546875 39.64453125 C39.0625 40.9375 39.0625 40.9375 36 43 C35.29875 43.598125 34.5975 44.19625 33.875 44.8125 C32 46 32 46 28 46 C28 46.66 28 47.32 28 48 C21.78883241 48.92151669 15.77244363 49.12129115 9.5 49.0625 C4.7975 49.0315625 4.7975 49.0315625 0 49 C0 40.75 0 32.5 0 24 C1.32 24 2.64 24 4 24 C4 30.93 4 37.86 4 45 C8.9190625 44.87625 8.9190625 44.87625 13.9375 44.75 C14.95191162 44.73420898 15.96632324 44.71841797 17.01147461 44.70214844 C23.856133 44.44974958 30.3551648 43.24447839 35.62475586 38.55371094 C40.37653488 33.18528884 40.36197015 27.94227198 40.26953125 21.04296875 C39.87972772 16.64214338 38.84208872 13.41050647 36 10 C30.45227008 5.45268039 25.45160657 3.9476662 18.359375 3.68359375 C17.28945313 3.64169922 16.21953125 3.59980469 15.1171875 3.55664062 C14.00601562 3.51732422 12.89484375 3.47800781 11.75 3.4375 C10.06003906 3.37272461 10.06003906 3.37272461 8.3359375 3.30664062 C5.55741046 3.20067985 2.77879609 3.09860858 0 3 C0 2.01 0 1.02 0 0 Z " fill="#2F1F50" transform="translate(340,254)"/>
<path d="M0 0 C4.04152915 -0.08746928 8.08281305 -0.14054982 12.125 -0.1875 C13.26710937 -0.21263672 14.40921875 -0.23777344 15.5859375 -0.26367188 C22.61804106 -0.32499836 27.1660031 0.09689124 32.8984375 4.4375 C36.30707316 8.04452186 37.40551018 10.61703971 37.5 15.625 C37.34543653 20.12022092 36.71447786 24.15507274 33.5625 27.546875 C29.21203204 30.89673533 27.21632376 32.12756222 21.7734375 32.09765625 C20.7421875 32.09443359 19.7109375 32.09121094 18.6484375 32.08789062 C17.02808594 32.07532227 17.02808594 32.07532227 15.375 32.0625 C13.74304688 32.05573242 13.74304688 32.05573242 12.078125 32.04882812 C9.38539338 32.0370179 6.69268991 32.01908205 4 32 C4 37.61 4 43.22 4 49 C2.68 49 1.36 49 0 49 C0 42.4 0 35.8 0 29 C2.36865234 28.92652344 2.36865234 28.92652344 4.78515625 28.8515625 C6.87762053 28.77649652 8.97006763 28.70095036 11.0625 28.625 C12.10083984 28.5940625 13.13917969 28.563125 14.20898438 28.53125 C22.31638585 28.28632964 22.31638585 28.28632964 30 26 C32.14211285 22.57497341 32.27193256 19.35575906 32.25 15.375 C32.25515625 14.43398438 32.2603125 13.49296875 32.265625 12.5234375 C32.17167307 9.75424779 32.17167307 9.75424779 30 7 C23.88490822 3.50684717 17.99174466 3.46304225 11.0625 3.3125 C9.99708984 3.27833984 8.93167969 3.24417969 7.83398438 3.20898438 C5.22276154 3.12701774 2.61185279 3.05770113 0 3 C0 2.01 0 1.02 0 0 Z " fill="#292929" transform="translate(165,254)"/>
<path d="M0 0 C1.32 0 2.64 0 4 0 C4.33 1.98 4.66 3.96 5 6 C5.61875 5.195625 6.2375 4.39125 6.875 3.5625 C10.03633244 0.39216092 13.22707234 0.1487827 17.5703125 -0.0703125 C23.15414934 0.09127763 27.08147973 2.08147973 31 6 C32.69046075 10.138008 33.24119693 13.60389822 33.1953125 18.0546875 C33.18886719 19.16328125 33.18242188 20.271875 33.17578125 21.4140625 C33.15902344 22.55617188 33.14226563 23.69828125 33.125 24.875 C33.11597656 26.0403125 33.10695313 27.205625 33.09765625 28.40625 C33.07417432 31.27104577 33.04133141 34.13541535 33 37 C31.68 37 30.36 37 29 37 C28.99589111 36.20827393 28.99178223 35.41654785 28.98754883 34.60083008 C28.95459846 31.00396748 28.88394957 27.40879525 28.8125 23.8125 C28.80669922 22.56662109 28.80089844 21.32074219 28.79492188 20.03710938 C28.93636062 12.74772098 28.93636062 12.74772098 25.51171875 6.69921875 C24.68285156 6.13847656 23.85398437 5.57773437 23 5 C22.67 4.67 22.34 4.34 22 4 C16.2811667 3.71405833 11.99232277 3.75575792 7.25 7.3125 C4.67833771 10.78424409 4.84726044 15.33434017 4.68359375 19.51953125 C4.64169922 20.54111328 4.59980469 21.56269531 4.55664062 22.61523438 C4.49766602 24.19788086 4.49766602 24.19788086 4.4375 25.8125 C4.37272461 27.42415039 4.37272461 27.42415039 4.30664062 29.06835938 C4.20089017 31.71212082 4.09879767 34.3559711 4 37 C2.68 37 1.36 37 0 37 C0 24.79 0 12.58 0 0 Z " fill="#6340A5" transform="translate(564,266)"/>
<path d="M0 0 C3.00535169 2.59553101 4.31169838 4.69934031 5.75 8.375 C5.75 9.035 5.75 9.695 5.75 10.375 C1.81352226 11.2132125 -2.12433951 12.04473255 -6.0625 12.875 C-7.18205078 13.11347656 -8.30160156 13.35195313 -9.45507812 13.59765625 C-10.52822266 13.82324219 -11.60136719 14.04882812 -12.70703125 14.28125 C-14.1916687 14.59545898 -14.1916687 14.59545898 -15.70629883 14.91601562 C-18.25 15.375 -18.25 15.375 -21.25 15.375 C-21.87674095 6.25243733 -21.87674095 6.25243733 -19.375 2.75 C-17.25 1.375 -17.25 1.375 -15.25 1.375 C-15.25 0.715 -15.25 0.055 -15.25 -0.625 C-9.76167348 -1.9555034 -5.16933579 -2.5846679 0 0 Z " fill="#B9B4BE" transform="translate(423.25,270.625)"/>
<path d="M0 0 C0 0.99 0 1.98 0 3 C-0.556875 2.855625 -1.11375 2.71125 -1.6875 2.5625 C-6.93857398 1.28521173 -11.59467258 0.6272188 -17 1 C-20.12606964 2.60480784 -20.12606964 2.60480784 -20.51171875 4.9453125 C-20.56972656 5.66460937 -20.62773437 6.38390625 -20.6875 7.125 C-20.8421875 9.043125 -20.8421875 9.043125 -21 11 C-19.84242188 11.23074219 -18.68484375 11.46148437 -17.4921875 11.69921875 C-15.95292701 12.02771946 -14.41387512 12.35719868 -12.875 12.6875 C-12.11445313 12.83638672 -11.35390625 12.98527344 -10.5703125 13.13867188 C-5.12983609 14.33463867 -1.89683614 15.96857925 2 20 C2.6875 23.5 2.6875 23.5 2 27 C-0.83561282 30.64578792 -3.52248263 32.82731688 -8 34 C-13.74596144 34.56332955 -19.82335908 33.65773901 -25 31 C-25.7890625 28.890625 -25.7890625 28.890625 -26 27 C-24.02 27.33 -22.04 27.66 -20 28 C-20 28.66 -20 29.32 -20 30 C-11.585 29.505 -11.585 29.505 -3 29 C-3 25.7 -3 22.4 -3 19 C-3.71285156 18.87882812 -4.42570312 18.75765625 -5.16015625 18.6328125 C-16.85903084 16.58590308 -16.85903084 16.58590308 -21 15 C-22.4375 12.875 -22.4375 12.875 -23 11 C-23.66 11 -24.32 11 -25 11 C-25.37011075 3.47441469 -25.37011075 3.47441469 -23.7109375 1.34765625 C-16.70893669 -4.16761836 -7.62689391 -4.25076885 0 0 Z " fill="#432C73" transform="translate(470,269)"/>
<path d="M0 0 C0.0874701 8.36797249 0.0874701 8.36797249 -2 11 C-6.79781037 14.38668967 -9.98713541 15.77944541 -16 15 C-18.31279611 13.84360194 -20.17409828 12.82590172 -22 11 C-22.14115161 8.32941149 -22.04247107 5.67567762 -22 3 C-15.08715353 -1.04654428 -7.74175497 -0.26901851 0 0 Z " fill="#BAB8BB" transform="translate(241,285)"/>
<path d="M0 0 C0.33 0.99 0.66 1.98 1 3 C0.31292969 3.24234375 -0.37414062 3.4846875 -1.08203125 3.734375 C-2.43361328 4.23710937 -2.43361328 4.23710937 -3.8125 4.75 C-4.70582031 5.07484375 -5.59914063 5.3996875 -6.51953125 5.734375 C-9.37621997 7.19196106 -10.49628764 8.17321605 -12 11 C-12.51204196 14.10130827 -12.51204196 14.10130827 -12.4375 17.4375 C-12.45683594 18.54996094 -12.47617187 19.66242188 -12.49609375 20.80859375 C-11.89141324 24.69854634 -10.81049397 26.27598277 -8 29 C-3.8573533 31.4313985 0.05259133 31.10558585 4.6875 30.6875 C5.36361328 30.63916016 6.03972656 30.59082031 6.73632812 30.54101562 C10.49294512 30.26747681 10.49294512 30.26747681 14 29 C13.67 29.99 13.34 30.98 13 32 C7.04742503 34.92217317 1.60314593 35.85840897 -5 35 C-8.625 33.5 -8.625 33.5 -11 32 C-11 31.34 -11 30.68 -11 30 C-11.66 30 -12.32 30 -13 30 C-17.43315949 23.9044057 -18.02491763 18.4435937 -17 11 C-14.84062362 6.52129344 -12.07047061 3.81801812 -8 1 C-5.07175348 0.02391783 -3.04386724 -0.08226668 0 0 Z " fill="#63439C" transform="translate(525,266)"/>
<path d="M0 0 C1.32 0 2.64 0 4 0 C4.33 1.65 4.66 3.3 5 5 C5.99 4.67 6.98 4.34 8 4 C8 3.34 8 2.68 8 2 C11.4352048 -0.29013653 12.985331 -0.17842973 17 0 C17 0.99 17 1.98 17 3 C15.906875 3.309375 14.81375 3.61875 13.6875 3.9375 C11.44592006 4.58337897 9.2130649 5.2623117 7 6 C5.25260123 10.03760027 4.72106575 13.68554088 4.5859375 18.0546875 C4.54726563 19.16328125 4.50859375 20.271875 4.46875 21.4140625 C4.4378125 22.55617188 4.406875 23.69828125 4.375 24.875 C4.33632813 26.0403125 4.29765625 27.205625 4.2578125 28.40625 C4.16389681 31.27067864 4.07822017 34.13510692 4 37 C2.68 37 1.36 37 0 37 C0 24.79 0 12.58 0 0 Z " fill="#35284D" transform="translate(288,266)"/>
<path d="M0 0 C1.32 0 2.64 0 4 0 C4 6.93 4 13.86 4 21 C10.11797738 20.92102901 10.11797738 20.92102901 16.2355957 20.81982422 C16.99960693 20.8148291 17.76361816 20.80983398 18.55078125 20.8046875 C19.72120972 20.78897705 19.72120972 20.78897705 20.9152832 20.77294922 C23 21 23 21 26 23 C20.49020226 25.32473193 15.484755 25.23282484 9.625 25.125 C6.44875 25.08375 3.2725 25.0425 0 25 C0 16.75 0 8.5 0 0 Z " fill="#3D2E5D" transform="translate(340,278)"/>
<path d="M0 0 C1.32 0 2.64 0 4 0 C4 12.21 4 24.42 4 37 C2.68 37 1.36 37 0 37 C0 24.79 0 12.58 0 0 Z " fill="#2B243B" transform="translate(264,266)"/>
<path d="M0 0 C0.33 0 0.66 0 1 0 C1 2.64 1 5.28 1 8 C-0.2375 8.0825 -1.475 8.165 -2.75 8.25 C-8.79137746 8.89556984 -14.317419 10.9327328 -20 13 C-20.23798791 15.85585493 -20.4184873 18.19935422 -20 21 C-16.62389409 24.88763711 -12.84461834 25.8600898 -8 27 C-8 27.33 -8 27.66 -8 28 C-14.50081691 28.33624915 -18.82003887 27.86196502 -23.875 23.3125 C-25.57458046 19.81891795 -25.19294508 16.85890158 -25 13 C-24.34 13 -23.68 13 -23 13 C-22.7525 12.38125 -22.505 11.7625 -22.25 11.125 C-20.67492305 8.44736919 -19.93242761 8.03934143 -17 7 C-14.07851091 6.76137455 -11.17864445 6.81186173 -8.25 6.875 C-7.06083984 6.88853516 -7.06083984 6.88853516 -5.84765625 6.90234375 C-3.89830719 6.92582988 -1.94911425 6.96169863 0 7 C0 4.69 0 2.38 0 0 Z " fill="#2C2A32" transform="translate(240,275)"/>
<path d="M0 0 C0.9590625 0.7425 0.9590625 0.7425 1.9375 1.5 C1.9375 2.16 1.9375 2.82 1.9375 3.5 C2.5975 3.5 3.2575 3.5 3.9375 3.5 C3.9375 1.19 3.9375 -1.12 3.9375 -3.5 C4.9275 -3.5 5.9175 -3.5 6.9375 -3.5 C6.9375 6.4 6.9375 16.3 6.9375 26.5 C6.6075 26.5 6.2775 26.5 5.9375 26.5 C5.4425 21.55 5.4425 21.55 4.9375 16.5 C4.6075 16.5 4.2775 16.5 3.9375 16.5 C3.855 15.46875 3.7725 14.4375 3.6875 13.375 C2.82595324 8.92367508 1.99438938 6.85512249 -1.0625 3.5 C-3.53779113 2.24382064 -6.0039742 1.27034128 -8.625 0.359375 C-10.8868719 -0.43807984 -12.94426575 -1.38204304 -15.0625 -2.5 C-9.86932678 -4.23105774 -4.79932421 -2.35068941 0 0 Z " fill="#502A94" transform="translate(537.0625,269.5)"/>
<path d="M0 0 C0.99 0 1.98 0 3 0 C3 11.88 3 23.76 3 36 C2.01 36 1.02 36 0 36 C0 24.12 0 12.24 0 0 Z " fill="#44247E" transform="translate(488,266)"/>
<path d="M0 0 C0.66 0 1.32 0 2 0 C2.87495179 7.9199413 3.12590042 15.7234313 3.0625 23.6875 C3.05798828 24.78255859 3.05347656 25.87761719 3.04882812 27.00585938 C3.03719156 29.67063309 3.02084564 32.33528517 3 35 C2.01 35 1.02 35 0 35 C0 23.45 0 11.9 0 0 Z " fill="#562CA7" transform="translate(565,267)"/>
<path d="M0 0 C1 1.5625 1 1.5625 0.6875 3.75 C0.460625 4.348125 0.23375 4.94625 0 5.5625 C-0.66 4.5725 -1.32 3.5825 -2 2.5625 C-7.27395648 0.12836624 -12.17413424 -1.11056404 -18 -0.4375 C-20.02237052 0.51644836 -22.0282696 1.50785351 -24 2.5625 C-24.99 2.2325 -25.98 1.9025 -27 1.5625 C-27 0.9025 -27 0.2425 -27 -0.4375 C-17.57391046 -5.36477408 -8.99991138 -6.46868631 0 0 Z " fill="#14131C" transform="translate(243,270.4375)"/>
<path d="M0 0 C1.32 0 2.64 0 4 0 C4.33 1.98 4.66 3.96 5 6 C6.65 4.35 8.3 2.7 10 1 C11.32 1.66 12.64 2.32 14 3 C13.4225 3.2475 12.845 3.495 12.25 3.75 C9.61295899 5.21502278 7.92641136 6.67502077 6 9 C5.20318682 11.64184541 5.20318682 11.64184541 5 14 C3 12 3 12 2.8046875 9.3984375 C2.82789063 8.40070313 2.85109375 7.40296875 2.875 6.375 C2.89304687 5.37210937 2.91109375 4.36921875 2.9296875 3.3359375 C2.95289063 2.56507813 2.97609375 1.79421875 3 1 C2.34 1 1.68 1 1 1 C1 12.55 1 24.1 1 36 C1.99 36.33 2.98 36.66 4 37 C2.68 37 1.36 37 0 37 C0 24.79 0 12.58 0 0 Z " fill="#795AB5" transform="translate(564,266)"/>
<path d="M0 0 C8.25 0 16.5 0 25 0 C25.66 1.32 26.32 2.64 27 4 C18.09 3.67 9.18 3.34 0 3 C0 2.01 0 1.02 0 0 Z " fill="#090909" transform="translate(165,254)"/>
<path d="M0 0 C7.26 0 14.52 0 22 0 C22 0.66 22 1.32 22 2 C12.595 2.495 12.595 2.495 3 3 C2.67 7.95 2.34 12.9 2 18 C1.34 18 0.68 18 0 18 C0 12.06 0 6.12 0 0 Z " fill="#010101" transform="translate(166,284)"/>
<path d="M0 0 C-0.22104083 3.8682146 -0.91155479 4.91745114 -3.8125 7.625 C-4.864375 8.40875 -5.91625 9.1925 -7 10 C-8.051875 10.8971875 -8.051875 10.8971875 -9.125 11.8125 C-11 13 -11 13 -15 13 C-15 13.66 -15 14.32 -15 15 C-16.65 15 -18.3 15 -20 15 C-20 14.01 -20 13.02 -20 12 C-19.40832031 11.76925781 -18.81664062 11.53851563 -18.20703125 11.30078125 C-13.1178891 9.20036859 -9.73435231 7.16113543 -6 3 C-2.37931034 0 -2.37931034 0 0 0 Z " fill="#342654" transform="translate(383,287)"/>
<path d="M0 0 C0.66 0.33 1.32 0.66 2 1 C1.96744792 2.98567708 1.93489583 4.97135417 1.90234375 6.95703125 C1.91736783 9.20305461 1.91736783 9.20305461 3 12 C2.01 12 1.02 12 0 12 C-0.33 10.68 -0.66 9.36 -1 8 C-1.825 8.66 -2.65 9.32 -3.5 10 C-7.42572297 12.62335042 -10.35499028 12.44951707 -15 12 C-17.2421875 10.9765625 -17.2421875 10.9765625 -19 10 C-18.33613281 9.96261719 -17.67226562 9.92523438 -16.98828125 9.88671875 C-11.85776831 9.50473895 -8.28275411 9.07822952 -4 6 C-3.34 6 -2.68 6 -2 6 C-1.34 4.02 -0.68 2.04 0 0 Z " fill="#15111A" transform="translate(241,290)"/>
<path d="M0 0 C2.97 0.495 2.97 0.495 6 1 C6 1.66 6 2.32 6 3 C13.92 2.505 13.92 2.505 22 2 C21.67 2.66 21.34 3.32 21 4 C18.4375 4.625 18.4375 4.625 16 5 C16.66 5.66 17.32 6.32 18 7 C12.14314077 7.38196908 6.28888269 6.71536506 1 4 C0.2109375 1.890625 0.2109375 1.890625 0 0 Z " fill="#513D7C" transform="translate(444,296)"/>
<path d="M0 0 C0 0.99 0 1.98 0 3 C-0.556875 2.855625 -1.11375 2.71125 -1.6875 2.5625 C-6.93820258 1.28530207 -11.59585533 0.54202164 -17 1 C-19.34261608 2.37926773 -19.34261608 2.37926773 -21 4 C-21.66 4 -22.32 4 -23 4 C-22.71484375 2.11328125 -22.71484375 2.11328125 -22 0 C-14.76173112 -3.81654177 -7.25377748 -4.04281635 0 0 Z " fill="#3F2870" transform="translate(470,269)"/>
<path d="M0 0 C0.33 2.31 0.66 4.62 1 7 C0.62230469 6.57847656 0.24460937 6.15695312 -0.14453125 5.72265625 C-4.60133104 1.2867314 -8.13755299 0.23982444 -14.3515625 -0.1875 C-17.27721673 0.01962596 -19.33934159 0.79784205 -22 2 C-22.99 2.33 -23.98 2.66 -25 3 C-25.33 3.99 -25.66 4.98 -26 6 C-26.33 4.68 -26.66 3.36 -27 2 C-26.01 2 -25.02 2 -24 2 C-23.67 1.01 -23.34 0.02 -23 -1 C-16.4999845 -4.25000775 -6.67053787 -2.09271776 0 0 Z " fill="#BEADD8" transform="translate(595,267)"/>
<path d="M0 0 C0.99 0 1.98 0 3 0 C3 0.66 3 1.32 3 2 C9.55276707 4.28584898 16.10401439 4.60594368 23 5 C22.67 5.66 22.34 6.32 22 7 C16.39 7 10.78 7 5 7 C5 6.34 5 5.68 5 5 C3.68 4.67 2.36 4.34 1 4 C0.67 2.68 0.34 1.36 0 0 Z " fill="#513292" transform="translate(511,308)"/>
<path d="M0 0 C6.6 0 13.2 0 20 0 C17 3 17 3 15.09887695 3.34057617 C14.40238037 3.32486572 13.70588379 3.30915527 12.98828125 3.29296875 C12.23095703 3.28330078 11.47363281 3.27363281 10.69335938 3.26367188 C9.90767578 3.23853516 9.12199219 3.21339844 8.3125 3.1875 C7.11657227 3.16719727 7.11657227 3.16719727 5.89648438 3.14648438 C3.93070033 3.11117089 1.96526418 3.05736447 0 3 C0 2.01 0 1.02 0 0 Z " fill="#251647" transform="translate(340,254)"/>
<path d="M0 0 C1.5778125 0.4021875 1.5778125 0.4021875 3.1875 0.8125 C3.1875 1.4725 3.1875 2.1325 3.1875 2.8125 C2.23875 3.080625 1.29 3.34875 0.3125 3.625 C-3.06517273 4.56236588 -3.06517273 4.56236588 -4.8125 7.8125 C-7.9375 8.5 -7.9375 8.5 -10.8125 8.8125 C-10.8125 6.8325 -10.8125 4.8525 -10.8125 2.8125 C-10.1525 2.4825 -9.4925 2.1525 -8.8125 1.8125 C-8.8125 2.8025 -8.8125 3.7925 -8.8125 4.8125 C-8.131875 3.966875 -7.45125 3.12125 -6.75 2.25 C-3.8125 -0.1875 -3.8125 -0.1875 0 0 Z " fill="#C0BBC7" transform="translate(412.8125,277.1875)"/>
<path d="M0 0 C7.76785714 -0.66964286 7.76785714 -0.66964286 11.4375 2.375 C15.03099991 6.05614625 15.12301311 7.64340439 15.09765625 12.6640625 C15.09443359 13.78554688 15.09121094 14.90703125 15.08789062 16.0625 C15.07951172 17.238125 15.07113281 18.41375 15.0625 19.625 C15.05798828 20.80835938 15.05347656 21.99171875 15.04882812 23.2109375 C15.03701467 26.14067507 15.02054258 29.07031272 15 32 C14.67 32 14.34 32 14 32 C13.98018066 31.35973877 13.96036133 30.71947754 13.93994141 30.05981445 C13.84436399 27.1436472 13.73481786 24.22816428 13.625 21.3125 C13.5940625 20.30509766 13.563125 19.29769531 13.53125 18.25976562 C13.49257813 17.28330078 13.45390625 16.30683594 13.4140625 15.30078125 C13.3826416 14.40528564 13.3512207 13.50979004 13.31884766 12.5871582 C12.96475631 9.71402958 12.33837451 7.56838867 11 5 C7.64161457 3.23924485 7.64161457 3.23924485 4 2 C2.65986503 1.34711373 1.32258472 0.68774405 0 0 Z " fill="#BBAADB" transform="translate(578,269)"/>
<path d="M0 0 C1.32 0 2.64 0 4 0 C3.00147198 2.89573124 2.03905844 3.97265909 -0.5 5.75 C-6.07944414 7.74265862 -11.47617878 7.80762279 -17.125 6 C-17.74375 5.67 -18.3625 5.34 -19 5 C-15.71311707 3.98447721 -12.92043557 4.01365918 -9.5 4.1875 C-5.13270639 4.34628093 -5.13270639 4.34628093 -1.5625 2 C-1.046875 1.34 -0.53125 0.68 0 0 Z " fill="#B5A2CE" transform="translate(535,306)"/>
<path d="M0 0 C-0.125 1.8125 -0.125 1.8125 -1 4 C-6.24624481 7.86565407 -11.78577669 7.2985481 -18 7 C-18 6.34 -18 5.68 -18 5 C-17.02160156 4.96132813 -17.02160156 4.96132813 -16.0234375 4.921875 C-10.22421105 4.54552402 -4.76956537 0 0 0 Z " fill="#2F1C58" transform="translate(429,295)"/>
<path d="M0 0 C1 2 1 2 0.5625 4.125 C0.06519382 6.66678712 0.01700967 8.57079385 0.125 11.125 C0 15 0 15 -1.4375 17 C-3 18 -3 18 -4 18 C-4.4033037 11.54714085 -3.64214341 6.91840123 -1 1 C-0.67 0.67 -0.34 0.34 0 0 Z " fill="#47326E" transform="translate(402,271)"/>
<path d="M0 0 C0.33 0 0.66 0 1 0 C1.05391993 1.79133978 1.09275571 3.58313899 1.125 5.375 C1.14820313 6.37273437 1.17140625 7.37046875 1.1953125 8.3984375 C1 11 1 11 -1 13 C-1 11.02 -1 9.04 -1 7 C-1.99 7 -2.98 7 -4 7 C-4 7.66 -4 8.32 -4 9 C-5.98 9 -7.96 9 -10 9 C-10 8.34 -10 7.68 -10 7 C-9.44570313 6.82984375 -8.89140625 6.6596875 -8.3203125 6.484375 C-3.74877023 5.09174014 -3.74877023 5.09174014 -0.5 1.8125 C-0.335 1.214375 -0.17 0.61625 0 0 Z " fill="#B2A0CB" transform="translate(540,293)"/>
<path d="M0 0 C0.66 0.33 1.32 0.66 2 1 C1.76435605 5.08449505 1.59037881 7.34214932 -1.1875 10.4375 C-4.41176773 12.22875985 -6.36804503 12.33785628 -10 12 C-10.33 11.34 -10.66 10.68 -11 10 C-9.88625 9.690625 -8.7725 9.38125 -7.625 9.0625 C-4.2054845 8.17673517 -4.2054845 8.17673517 -2 7 C-1.26924352 4.6859378 -0.59861742 2.35171131 0 0 Z " fill="#3B236B" transform="translate(470,290)"/>
<path d="M0 0 C0.66 1.32 1.32 2.64 2 4 C-3.20506467 8.89888439 -8.22989161 8.34116256 -15.1484375 8.140625 C-16.08945312 8.09421875 -17.03046875 8.0478125 -18 8 C-18 7.67 -18 7.34 -18 7 C-11.565 6.505 -11.565 6.505 -5 6 C-5.66 5.34 -6.32 4.68 -7 4 C-6.030625 3.525625 -5.06125 3.05125 -4.0625 2.5625 C-1.19522563 1.29806053 -1.19522563 1.29806053 0 0 Z " fill="#61449D" transform="translate(538,308)"/>
<path d="M0 0 C4.45133637 1.07105534 8.11896474 2.16998607 11.9140625 4.86328125 C11.5840625 5.85328125 11.2540625 6.84328125 10.9140625 7.86328125 C9.1815625 6.93515625 9.1815625 6.93515625 7.4140625 5.98828125 C3.31092625 3.92205907 -0.60293767 2.82392407 -5.0859375 1.86328125 C-2.0859375 -0.13671875 -2.0859375 -0.13671875 0 0 Z " fill="#5A3D8F" transform="translate(527.0859375,266.13671875)"/>
<path d="M0 0 C0 0.99 0 1.98 0 3 C-1.093125 3.309375 -2.18625 3.61875 -3.3125 3.9375 C-5.55407994 4.58337897 -7.7869351 5.2623117 -10 6 C-10.33 6.99 -10.66 7.98 -11 9 C-11.99 8.34 -12.98 7.68 -14 7 C-13.34 7 -12.68 7 -12 7 C-11.67 6.01 -11.34 5.02 -11 4 C-10.34 4 -9.68 4 -9 4 C-9 3.34 -9 2.68 -9 2 C-5.5647952 -0.29013653 -4.014669 -0.17842973 0 0 Z " fill="#302746" transform="translate(305,266)"/>
<path d="M0 0 C0.99 0 1.98 0 3 0 C3 1.65 3 3.3 3 5 C4.32 5 5.64 5 7 5 C7 5.66 7 6.32 7 7 C7.66 7.33 8.32 7.66 9 8 C4.94393835 7.53199289 1.53411321 7.12046792 -2 5 C-2 4.34 -2 3.68 -2 3 C-1.34 3 -0.68 3 0 3 C0 2.01 0 1.02 0 0 Z " fill="#B5ADC2" transform="translate(451,275)"/>
<path d="M0 0 C1.0625 1.625 1.0625 1.625 0.75 3.8125 C0.523125 4.410625 0.29625 5.00875 0.0625 5.625 C-0.35 5.00625 -0.7625 4.3875 -1.1875 3.75 C-4.70146337 -0.51695552 -8.59392577 -0.75843374 -13.9375 -1.375 C-13.9375 -1.705 -13.9375 -2.035 -13.9375 -2.375 C-8.49103807 -3.67177665 -4.63339498 -3.2882158 0 0 Z " fill="#34225D" transform="translate(426.9375,270.375)"/>
<path d="M0 0 C-0.33 0.66 -0.66 1.32 -1 2 C-2.65 2 -4.3 2 -6 2 C-6.33 2.99 -6.66 3.98 -7 5 C-7.33 4.34 -7.66 3.68 -8 3 C-9.423125 3.309375 -9.423125 3.309375 -10.875 3.625 C-11.90625 3.74875 -12.9375 3.8725 -14 4 C-14.66 3.34 -15.32 2.68 -16 2 C-10.61972975 0.80911014 -5.54708616 -0.2919519 0 0 Z " fill="#B3A9C0" transform="translate(424,285)"/>
<path d="M0 0 C1.258125 -0.020625 2.51625 -0.04125 3.8125 -0.0625 C4.52019531 -0.07410156 5.22789062 -0.08570313 5.95703125 -0.09765625 C8 0 8 0 11 1 C11.33 3.31 11.66 5.62 12 8 C11.55269531 7.57847656 11.10539063 7.15695312 10.64453125 6.72265625 C6.01600234 2.4622021 6.01600234 2.4622021 0 1 C0 0.67 0 0.34 0 0 Z " fill="#B1A3D2" transform="translate(584,266)"/>
<path d="M0 0 C0.79148437 0.10957031 1.58296875 0.21914063 2.3984375 0.33203125 C3.59339844 0.47705078 3.59339844 0.47705078 4.8125 0.625 C5.78316406 0.88216797 5.78316406 0.88216797 6.7734375 1.14453125 C7.1034375 1.80453125 7.4334375 2.46453125 7.7734375 3.14453125 C3.4834375 3.14453125 -0.8065625 3.14453125 -5.2265625 3.14453125 C-2.2265625 0.14453125 -2.2265625 0.14453125 0 0 Z " fill="#5A329F" transform="translate(580.2265625,265.85546875)"/>
<path d="M0 0 C5.875 2.75 5.875 2.75 7 5 C10.02934491 5.65772428 10.02934491 5.65772428 13 6 C13 6.33 13 6.66 13 7 C7.32723489 7.29341888 4.00932754 7.00559652 -1 4 C-0.67 2.68 -0.34 1.36 0 0 Z " fill="#413E45" transform="translate(219,296)"/>
<path d="M0 0 C1.4384798 0.06423833 2.87666999 0.14163547 4.3125 0.25 C3.9825 0.91 3.6525 1.57 3.3125 2.25 C3.9725 2.91 4.6325 3.57 5.3125 4.25 C3.3325 4.25 1.3525 4.25 -0.6875 4.25 C-0.6875 3.59 -0.6875 2.93 -0.6875 2.25 C-2.9975 2.91 -5.3075 3.57 -7.6875 4.25 C-5.84004374 0.30875998 -4.09551026 -0.02575793 0 0 Z " fill="#BFB9CA" transform="translate(514.6875,305.75)"/>
<path d="M0 0 C3.45925163 1.2491742 6.14693203 2.67527795 9 5 C8.67 5.66 8.34 6.32 8 7 C7.01 6.34 6.02 5.68 5 5 C4.67 5.66 4.34 6.32 4 7 C2.35 5.68 0.7 4.36 -1 3 C-0.67 2.01 -0.34 1.02 0 0 Z " fill="#463A65" transform="translate(370,256)"/>
<path d="M0 0 C0.33 0 0.66 0 1 0 C1.22211116 1.93596892 1.42722992 3.87389328 1.625 5.8125 C1.74101563 6.89144531 1.85703125 7.97039062 1.9765625 9.08203125 C2 12 2 12 0 15 C-0.66 15 -1.32 15 -2 15 C-1.855625 14.195625 -1.71125 13.39125 -1.5625 12.5625 C-0.90311661 8.38640519 -0.43908647 4.20401941 0 0 Z " fill="#4C2B92" transform="translate(541,295)"/>
<path d="M0 0 C1.875 0.25 1.875 0.25 4 1 C5.25 3.0625 5.25 3.0625 6 5 C5.34 5 4.68 5 4 5 C3.34 7.31 2.68 9.62 2 12 C0.64554744 9.29109488 1 7.00994125 1 4 C0.56058477 1.73433657 0.56058477 1.73433657 0 0 Z " fill="#51397C" transform="translate(466,286)"/>
<path d="M0 0 C0.66 0.33 1.32 0.66 2 1 C2 4.96 2 8.92 2 13 C1.01 13.495 1.01 13.495 0 14 C-1.39151652 9.20699867 -0.68662689 4.84864218 0 0 Z " fill="#BEB7C9" transform="translate(379,271)"/>
<path d="M0 0 C1.67542976 0.28604898 3.34385343 0.61781233 5 1 C5 2.32 5 3.64 5 5 C3.35 5 1.7 5 0 5 C-0.5625 3.0625 -0.5625 3.0625 -1 1 C-0.67 0.67 -0.34 0.34 0 0 Z " fill="#2F2C3E" transform="translate(264,252)"/>
<path d="M0 0 C0.33 0 0.66 0 1 0 C1 3.63 1 7.26 1 11 C0.67 10.34 0.34 9.68 0 9 C-0.66 9 -1.32 9 -2 9 C-2.25 3.375 -2.25 3.375 0 0 Z " fill="#492590" transform="translate(510,277)"/>
<path d="M0 0 C0.66 0 1.32 0 2 0 C1.83628906 0.55171875 1.67257812 1.1034375 1.50390625 1.671875 C0.94239586 4.26614007 0.90260992 6.59835411 0.9375 9.25 C0.95103516 10.58804687 0.95103516 10.58804687 0.96484375 11.953125 C0.97644531 12.62859375 0.98804688 13.3040625 1 14 C0.34 14 -0.32 14 -1 14 C-1.93402724 8.58264203 -2.20808081 5.19548425 0 0 Z " fill="#C2BCCE" transform="translate(445,268)"/>
<path d="M0 0 C2 1 2 1 3 3 C0.1875 4.5625 0.1875 4.5625 -3 6 C-3.99 5.67 -4.98 5.34 -6 5 C-6 4.34 -6 3.68 -6 3 C-4.03533587 1.93224776 -2.03144641 0.93446535 0 0 Z " fill="#25242B" transform="translate(222,267)"/>
<path d="M0 0 C-1.36983503 3.16115776 -1.9890638 3.9927092 -5 6 C-5.99 6 -6.98 6 -8 6 C-8 4 -8 4 -6.25 1.875 C-4 0 -4 0 0 0 Z " fill="#BCB0CC" transform="translate(539,306)"/>
<path d="M0 0 C-0.25 2.375 -0.25 2.375 -1 5 C-3.0625 6.3125 -3.0625 6.3125 -5 7 C-5 5.02 -5 3.04 -5 1 C-2 0 -2 0 0 0 Z " fill="#BFB9CA" transform="translate(454,271)"/>
<path d="M0 0 C0.33 0.66 0.66 1.32 1 2 C0.0625 4.625 0.0625 4.625 -1 7 C-3.31 7.33 -5.62 7.66 -8 8 C-6.71034824 6.62437146 -5.37310707 5.29233607 -4 4 C-3.34 4 -2.68 4 -2 4 C-1.34 2.68 -0.68 1.36 0 0 Z " fill="#A49DB1" transform="translate(380,292)"/>
<path d="M0 0 C-0.5775 0.268125 -1.155 0.53625 -1.75 0.8125 C-4.05747896 1.95053246 -4.05747896 1.95053246 -6.125 3.625 C-8 5 -8 5 -10 5 C-9.75 3.125 -9.75 3.125 -9 1 C-5.84213022 -1.36840234 -3.69270227 -1.02575063 0 0 Z " fill="#341E64" transform="translate(457,268)"/>
<path d="M0 0 C2.47141532 2.1490568 3.69898137 3.68879509 4 7 C3.0625 9.25 3.0625 9.25 2 11 C0.57741188 7.17679443 -0.24042276 4.08718695 0 0 Z " fill="#B4AEB9" transform="translate(376,264)"/>
<path d="M0 0 C-1.36983503 3.16115776 -1.9890638 3.9927092 -5 6 C-5.99 6 -6.98 6 -8 6 C-8 5.01 -8 4.02 -8 3 C-2.25 0 -2.25 0 0 0 Z " fill="#BCB3C7" transform="translate(376,291)"/>
<path d="M0 0 C0.66 0 1.32 0 2 0 C2 0.66 2 1.32 2 2 C2.66 2 3.32 2 4 2 C4.33 3.65 4.66 5.3 5 7 C3.68 6.67 2.36 6.34 1 6 C0.67 4.02 0.34 2.04 0 0 Z " fill="#563799" transform="translate(508,286)"/>
<path d="M0 0 C1.32 0 2.64 0 4 0 C3.67 1.65 3.34 3.3 3 5 C1.68 4.67 0.36 4.34 -1 4 C-0.67 2.68 -0.34 1.36 0 0 Z " fill="#493081" transform="translate(488,252)"/>
<path d="M0 0 C7.50769231 -0.36923077 7.50769231 -0.36923077 10 1.5 C10.495 2.2425 10.495 2.2425 11 3 C4.6 3.36923077 4.6 3.36923077 1.5625 1.5 C1.046875 1.005 0.53125 0.51 0 0 Z " fill="#4C3677" transform="translate(451,300)"/>
<path d="M0 0 C2.16721782 3.25082673 2.27221018 4.29232153 2.25 8.0625 C2.25515625 8.94035156 2.2603125 9.81820313 2.265625 10.72265625 C2 13 2 13 0 15 C0.01160156 14.32453125 0.02320313 13.6490625 0.03515625 12.953125 C0.04417969 12.06109375 0.05320313 11.1690625 0.0625 10.25 C0.07990234 8.92742187 0.07990234 8.92742187 0.09765625 7.578125 C0.08955644 5.02821052 0.08955644 5.02821052 -0.56640625 2.734375 C-0.70949219 2.16203125 -0.85257813 1.5896875 -1 1 C-0.67 0.67 -0.34 0.34 0 0 Z " fill="#07030B" transform="translate(242,286)"/>
<path d="M0 0 C1.32 0.33 2.64 0.66 4 1 C4 2.65 4 4.3 4 6 C3.34 6 2.68 6 2 6 C1.34 6.66 0.68 7.32 0 8 C0 5.36 0 2.72 0 0 Z " fill="#55407E" transform="translate(445,272)"/>
<path d="M0 0 C1.32 0 2.64 0 4 0 C2.95125002 2.62187494 2.35068687 3.79371361 -0.125 5.25 C-0.74375 5.4975 -1.3625 5.745 -2 6 C-1.34 4.02 -0.68 2.04 0 0 Z " fill="#502F94" transform="translate(513,270)"/>
<path d="M0 0 C1.65 0 3.3 0 5 0 C4.01 0.66 3.02 1.32 2 2 C2 2.99 2 3.98 2 5 C2.99 5.66 3.98 6.32 5 7 C3.35 7.33 1.7 7.66 0 8 C-0.98120464 4.94736336 -0.98120464 3.05263664 0 0 Z " fill="#B6AAC8" transform="translate(486,251)"/>
<path d="M0 0 C2.64 0 5.28 0 8 0 C8.33 0.66 8.66 1.32 9 2 C4.545 2.495 4.545 2.495 0 3 C0 2.01 0 1.02 0 0 Z " fill="#2C1E4B" transform="translate(340,254)"/>
<path d="M0 0 C-0.33 1.32 -0.66 2.64 -1 4 C-2.65 4.33 -4.3 4.66 -6 5 C-6.33 4.34 -6.66 3.68 -7 3 C-2.25 0 -2.25 0 0 0 Z " fill="#3D2D64" transform="translate(429,295)"/>
<path d="M0 0 C1.18851562 0.10183594 2.37703125 0.20367187 3.6015625 0.30859375 C4.51679688 0.39238281 5.43203125 0.47617187 6.375 0.5625 C6.375 0.8925 6.375 1.2225 6.375 1.5625 C4.25131556 1.78384176 2.12595976 1.98920007 0 2.1875 C-1.18335938 2.30351562 -2.36671875 2.41953125 -3.5859375 2.5390625 C-4.58882813 2.54679687 -5.59171875 2.55453125 -6.625 2.5625 C-7.285 1.9025 -7.945 1.2425 -8.625 0.5625 C-5.68113377 -0.90943312 -3.25109964 -0.28686173 0 0 Z " fill="#45326D" transform="translate(414.625,298.4375)"/>
<path d="M0 0 C1.45792884 -0.05399736 2.91642712 -0.09279177 4.375 -0.125 C5.18710937 -0.14820313 5.99921875 -0.17140625 6.8359375 -0.1953125 C9 0 9 0 11 2 C10.01 3.485 10.01 3.485 9 5 C9 4.34 9 3.68 9 3 C4.545 2.01 4.545 2.01 0 1 C0 0.67 0 0.34 0 0 Z " fill="#9D91B5" transform="translate(461,266)"/>
<path d="M0 0 C3 2 6 4 9 6 C6.125 6.125 6.125 6.125 3 6 C1.66666667 4.66666667 0.33333333 3.33333333 -1 2 C-0.67 1.34 -0.34 0.68 0 0 Z " fill="#A496B6" transform="translate(402,296)"/>
<path d="M0 0 C1.32 0.33 2.64 0.66 4 1 C2.63016497 4.16115776 2.0109362 4.9927092 -1 7 C-1.33 6.01 -1.66 5.02 -2 4 C-1.34 4 -0.68 4 0 4 C0 2.68 0 1.36 0 0 Z " fill="#B4A8CD" transform="translate(535,289)"/>
<path d="M0 0 C0.99 0.33 1.98 0.66 3 1 C2.34 1 1.68 1 1 1 C0.67 3.31 0.34 5.62 0 8 C-1.5625 6.1875 -1.5625 6.1875 -3 4 C-2.67 3.01 -2.34 2.02 -2 1 C-1.34 0.67 -0.68 0.34 0 0 Z " fill="#4A3971" transform="translate(402,288)"/>
<path d="M0 0 C1.65 1.32 3.3 2.64 5 4 C4.67 5.32 4.34 6.64 4 8 C3.34 7.01 2.68 6.02 2 5 C1.01 4.67 0.02 4.34 -1 4 C-0.67 2.68 -0.34 1.36 0 0 Z " fill="#343338" transform="translate(239,268)"/>
<path d="M0 0 C0 0.66 0 1.32 0 2 C-3.3 1.67 -6.6 1.34 -10 1 C-6.1496895 -1.56687367 -4.41430237 -0.83288724 0 0 Z " fill="#4A298F" transform="translate(532,267)"/>
<path d="M0 0 C-0.33 1.65 -0.66 3.3 -1 5 C-1.99 5.33 -2.98 5.66 -4 6 C-4 5.34 -4 4.68 -4 4 C-4.66 3.67 -5.32 3.34 -6 3 C-2.25 0 -2.25 0 0 0 Z " fill="#473766" transform="translate(383,287)"/>
<path d="M0 0 C0 0.99 0 1.98 0 3 C-1.32 3 -2.64 3 -4 3 C-4 2.34 -4 1.68 -4 1 C-5.32 0.67 -6.64 0.34 -8 0 C-4.94736336 -0.98120464 -3.05263664 -0.98120464 0 0 Z " fill="#262626" transform="translate(192,283)"/>
</svg>
